<svg width="32" height="32" viewBox="0 0 32 32" xmlns="http://www.w3.org/2000/svg">
  <rect width="32" height="32" fill="#ffffff"/>
  <path d="M6 8c0-1.1.9-2 2-2h6c1.1 0 2 .9 2 2v16c0 1.1-.9 2-2 2H8c-1.1 0-2-.9-2-2V8z" fill="#3b82f6"/>
  <path d="M16 8c0-1.1.9-2 2-2h6c1.1 0 2 .9 2 2v16c0 1.1-.9 2-2 2h-6c-1.1 0-2-.9-2-2V8z" fill="#60a5fa"/>
  <line x1="16" y1="6" x2="16" y2="26" stroke="#1f2937" stroke-width="1"/>
  <line x1="8" y1="12" x2="12" y2="12" stroke="#e5e7eb" stroke-width="1"/>
  <line x1="8" y1="15" x2="12" y2="15" stroke="#e5e7eb" stroke-width="1"/>
  <line x1="8" y1="18" x2="12" y2="18" stroke="#e5e7eb" stroke-width="1"/>
  <line x1="20" y1="12" x2="24" y2="12" stroke="#e5e7eb" stroke-width="1"/>
  <line x1="20" y1="15" x2="24" y2="15" stroke="#e5e7eb" stroke-width="1"/>
  <line x1="20" y1="18" x2="24" y2="18" stroke="#e5e7eb" stroke-width="1"/>
</svg> 